# xmcd
#
# Track frame offsets: 
#        150
#        13473
#        27063
#        40033
#        53285
#        66540
#        80757
#        94676
#        107471
#        120865
#        134237
#        146814
#        160258
#        174043
#        187714
#        201310
#
# Disc length: 2847 seconds
#
# Revision: 0
# Processed by: cddbd v1.5.2PL0 Copyright (c) Steve Scherf et al.
# Submitted via: ExactAudioCopy v0.99pb4
#
DISCID=d10b1d10
DTITLE=Leadbelly - Leadbelly
DYEAR=1970
DGENRE=Folk
TTITLE0=Roberta (Part I)
TTITLE1=Roberta (Part II)
TTITLE2=Packin' Trunk Blues
TTITLE3=C. C. Rider
TTITLE4=You can't lose me, Charlie
TTITLE5=Black Snake Moan
TTITLE6=Alberta
TTITLE7=Baby don't you love me no more
TTITLE8=Death Letter Blues (Part I)
TTITLE9=Death Letter Blues (Part II)
TTITLE10=Kansas City Papa
TTITLE11=Red River
TTITLE12=Blind Lemon
TTITLE13=Mister Tom Hughes's Town
TTITLE14=Match Box Blues
TTITLE15=Bull Cow
EXTD=
EXTT0=
EXTT1=
EXTT2=
EXTT3=
EXTT4=
EXTT5=
EXTT6=
EXTT7=
EXTT8=
EXTT9=
EXTT10=
EXTT11=
EXTT12=
EXTT13=
EXTT14=
EXTT15=
PLAYORDER=
